<?xml version="1.0" encoding="UTF-8"?><svg id="a" xmlns="http://www.w3.org/2000/svg" viewBox="0 0 136.06 67.89"><defs><style>.b{fill:#ededed;}</style></defs><path class="b" d="M56.58,0V11.1h-11.21V.02h-.17V11.12h-11.15V.01s-.09,0-.14,0V11.11h-11.24V0h-.17V11.12H11.32V.04c-.06,0-.11,0-.17,0V11.19H.04c0,.06,0,.11,0,.17H11.11v11.18H0v.17H11.13v11.17H.03c0,.06,0,.11,0,.17H11.12v11.18H0c0,.06,0,.11,0,.17H11.11v11.2H.02v.17H11.21v11.11h.17v-11.09h11.15v11.11c.06,0,.11,0,.17,0v-11.1h11.21v11.09h.17v-11.11h11.18v11.08c.06,0,.11,0,.17,0v-11.06h11.18v11.1c.06,0,.11,0,.17,0v-11.12h11.18v11.09c.06,0,.11,0,.17,0v-11.08h11.18v11.11h.17v-11.1h11.21v11.08h.17v-11.1h11.18v11.07h.17v-11.06h11.18v11.09h.17v-11.11h11.18v11.08c.06,0,.11,0,.17,0v-11.15h11.11c0-.06,0-.11,0-.17h-11.07v-11.18h11.11v-.17h-11.13v-11.17h11.1c0-.06,0-.11,0-.17h-11.09v-11.18h11.12v-.17h-11.11V11.3h11.08v-.17h-11.19V.03h-.17V11.12h-11.15V0c-.06,0-.11,0-.17,0V11.1h-11.21V.02h-.17V11.12h-11.18V.04h-.17V11.11h-11.18V0h-.17V11.12h-11.18V.03c-.06,0-.11,0-.17,0V11.11h-11.18V0c-.06,0-.11,0-.17,0m23.12,11.38h10.95V56.49h-10.95V11.38Zm-34.17,0h10.95v22.45h-10.95V11.38Zm-22.78,0h11.08v5.32h-11.08v-5.32Zm-11.33,0h10.95v22.45H11.43V11.38Zm45.39,0h11.09v11.07h-11.09V11.38Zm-22.7,.02h11.07V28.09h-11.07V11.39Zm34.04,0h11.09v11.07h-11.09V11.4Zm34.06,0h22.44v10.96h-22.44V11.4Zm-11.35,0h11.08v11.07h-11.08V11.4ZM22.74,16.99h11.08v16.83h-11.08V16.99Zm90.85,5.74h11.07v11.1h-11.07v-11.1Zm-11.37,0h11.08v11.07h-11.08v-11.07Zm-11.36,0h11.08v22.42h-11.08V22.73Zm-34.07,0h22.43v11.07h-22.43v-11.07Zm-14.04,5.57h2.43v5.51h-2.43v-5.51Zm-8.66,0h5.48v5.49h-5.48v-5.49Zm5.75,.02h2.62v5.48h-2.62v-5.48Zm79.49,5.73h5.33v5.34h-5.33v-5.34Zm-96.6,0h22.43v11.09H22.74v-11.09Zm34.08,0h11.08v22.42h-11.08v-22.42Zm-11.36,0h11.09v11.07h-11.09v-11.07Zm56.76,0h16.84v11.08h-16.84v-11.08Zm-34.07,0h11.11v11.06h-11.11v-11.06Zm-56.77,0h11.09v11.07H11.38v-11.07Zm107.99,5.59h5.32v5.48h-5.32v-5.48Zm-17.15,5.7h22.46v11.16h-22.46v-11.16Zm-90.84,0H56.55v11.16H11.38v-11.16Zm79.48,.04h5.49v11.08h-5.49v-11.08Zm5.79,.02h5.32v5.32h-5.32v-5.32Zm-28.5,0h11.08v5.32h-11.08v-5.32Zm28.5,5.58h5.32v2.61h-5.32v-2.61Zm-28.47,0h11.08v2.61h-11.08v-2.61Zm31.15,2.85h2.62v2.63h-2.62v-2.63Zm-31.18,.01h11.08v2.61h-11.08v-2.61Zm28.49,0h2.44v2.62h-2.44v-2.62Z"/><rect class="b" x="11.09" y="11.01" width="11.62" height="22.94"/><rect class="b" x="45.17" y="11.01" width="11.62" height="22.94"/><rect class="b" x="101.92" y="11.03" width="23" height="11.6"/><rect class="b" x="101.92" y="45.07" width="23.01" height="11.6"/><rect class="b" x="11.08" y="45.05" width="45.71" height="11.62"/><rect class="b" x="79.23" y="11.01" width="11.62" height="45.67"/></svg>